<svg id="Layer_1" data-name="Layer 1" xmlns="http://www.w3.org/2000/svg" viewBox="0 0 484.8 512"><defs><style>.cls-1{fill:#006df0;}</style></defs><title>business</title><path class="cls-1" d="M488.4,492H466.47V173.54a26.91,26.91,0,0,0-26.88-26.88h-49a26.91,26.91,0,0,0-26.88,26.88V492H308V317.83a26.91,26.91,0,0,0-26.88-26.88h-49a26.91,26.91,0,0,0-26.88,26.88V492H149.51V401.8a26.91,26.91,0,0,0-26.88-26.88h-49A26.91,26.91,0,0,0,46.72,401.8V492H23.6a10,10,0,1,0,0,20H488.4a10,10,0,1,0,0-20ZM129.5,492H66.72V401.8a6.89,6.89,0,0,1,6.88-6.88h49a6.89,6.89,0,0,1,6.88,6.88V492ZM288,492H225.2V317.83a6.89,6.89,0,0,1,6.88-6.88h49a6.89,6.89,0,0,1,6.88,6.88Zm158.48,0H383.68V173.54a6.89,6.89,0,0,1,6.88-6.88h49a6.89,6.89,0,0,1,6.88,6.88V492Z" transform="translate(-13.6)"/><path class="cls-1" d="M466.44,10.52A10,10,0,0,0,455.95,0l-.48,0H395a10,10,0,0,0,0,20h37.36l-98.86,98.86L296.19,81.58a10,10,0,0,0-14.14,0L102.27,261.35a10,10,0,0,0,14.14,14.14l172.7-172.7,37.28,37.28a10,10,0,0,0,14.14,0L446.47,34.14V68a10,10,0,1,0,20,0V11C466.47,10.84,466.45,10.68,466.44,10.52Z" transform="translate(-13.6)"/><circle class="cls-1" cx="62.04" cy="303.31" r="10"/></svg>