<svg id="Capa_1" data-name="Capa 1" xmlns="http://www.w3.org/2000/svg" viewBox="0 0 512 438.85"><defs><style>.cls-1{fill:#fff;}</style></defs><title>comment</title><path class="cls-1" d="M477.71,127.57Q443.43,85.44,384.57,61T256,36.58q-69.71,0-128.57,24.43T34.29,127.57Q0,169.72,0,219.43q0,42.85,25.86,80.29t70.72,62.86a182.38,182.38,0,0,1-7.43,21.72q-4.29,10.28-7.71,16.86a116,116,0,0,1-9.29,14.57q-5.85,8-8.85,11.29t-9.86,10.86q-6.85,7.57-8.85,9.86a20.1,20.1,0,0,0-2.29,2.58l-2,2.42-1.71,2.57c-1,1.42-1.38,2.33-1.29,2.7a7.59,7.59,0,0,1-.57,2.86q-.72,2.29.14,3.43v.29a14.56,14.56,0,0,0,4.57,7.86,11.44,11.44,0,0,0,7.72,3h1.43a215.45,215.45,0,0,0,32.57-6.28Q158,450,214.57,400A390.64,390.64,0,0,0,256,402.28q69.71,0,128.57-24.43t93.14-66.57Q512,269.15,512,219.43T477.71,127.57ZM445.57,292.29Q415.7,326,365,345.86T256,365.71a322.58,322.58,0,0,1-37.14-2.29l-16.29-1.71-12.29,10.86a281.71,281.71,0,0,1-78.57,48.86,205,205,0,0,0,20-49.14l7.71-27.43-24.86-14.28Q77.43,309.43,57,280.43t-20.43-61q0-39.14,29.86-72.86T147,93q50.72-19.86,109-19.86T365,93q50.71,19.86,80.58,53.57t29.86,72.86Q475.42,258.57,445.57,292.29Z" transform="translate(0 -36.58)"/></svg>