<svg id="Layer_1" data-name="Layer 1" xmlns="http://www.w3.org/2000/svg" viewBox="0 0 512 341.33"><defs><style>.cls-1{fill:#006df0;}</style></defs><title>deal</title><path class="cls-1" d="M507.45,108.59a10.58,10.58,0,0,0-9.76-1.28l-87,31.63a42.35,42.35,0,0,0-24.17,22.23,42.86,42.86,0,0,0-2.08,6c-14.93-4.24-42.68-13.11-70.26-27.32-41.67-21.47-73.51-10.87-100.82,10-13.84.27-32.91,1.91-51.65,3.56-12,1.05-23.26,2-32.42,2.59a42.68,42.68,0,0,0-28.06-38.35L14.31,86A10.66,10.66,0,0,0,0,96V309.33A10.66,10.66,0,0,0,10.67,320H41.82a42.9,42.9,0,0,0,33.55-16.34c4.25,3.23,9.27,7,14.55,11C102.36,324,116,334.21,122,339.22c39.72,33.25,87.47,69.16,97,75.41,8.88,5.83,24.88,12,37.05,12,4.76,0,16.75,0,25.17-7.11A34.28,34.28,0,0,0,307.9,419a40,40,0,0,0,19.78-19.79,41.52,41.52,0,0,0,26.58-3.9c8.14-4.07,14.13-10.24,17.33-17.45,7.71.71,15.94-1.8,23.3-7.44,10.52-8,15.34-19.92,14-31.64l27.06-15a42.73,42.73,0,0,0,34.25,17.56h31.16A10.66,10.66,0,0,0,512,330.67V117.33A10.67,10.67,0,0,0,507.45,108.59ZM61.8,284.82a21.43,21.43,0,0,1-20,13.84H21.33V111.23L94,137.65a21.34,21.34,0,0,1,12.69,27.53Zm320.15,68.61c-3.61,2.77-8.68,4.31-10.93,2.06-.11-.11-.29-.1-.41-.21s-.3-.44-.53-.62c-7.62-6-41.79-41-62.91-63a10.66,10.66,0,1,0-15.4,14.75c5,5.17,44.74,46.61,60.66,61.1-1.19,4.68-5.53,7.58-7.74,8.68-6.83,3.43-14,2.85-16.62.38-.08-.07-.2-.07-.28-.14s-.19-.28-.33-.39c-12.79-10.22-44.89-44.32-52.15-52.22a10.67,10.67,0,0,0-15.71,14.44c.35.38,31.8,34.31,49.47,50.07a18.75,18.75,0,0,1-9.81,11.12c-3.35,1.49-8.59,2.25-14.57-2.17-15.32-13-46.06-45.71-52.1-52.18A10.66,10.66,0,1,0,217,359.66c7.17,7.67,28.35,30.13,44.46,45.33a46.12,46.12,0,0,1-5.48.34c-7.06,0-19.2-4.51-25.33-8.54-7.48-4.92-54.44-40-95-73.92-6.13-5.15-20.14-15.68-32.95-25.3-6.87-5.15-13.19-9.91-17.86-13.49l39.94-106.52c10.37-.45,24.19-1.65,38.82-2.94,8.27-.73,16.55-1.44,24.47-2.06-12.16,12.49-30.25,34.85-27.87,55.82,1.09,9.54,6.31,17.49,15.12,23,17.43,10.91,49.69,1.76,65.23-17.35a74.16,74.16,0,0,0,24.21-7.68c12.5,11.75,29.26,25.56,46.86,40.07,30.65,25.25,65.39,53.88,74.57,69.93C391.33,345.27,384.24,351.69,381.95,353.44Zm18.3-34.3c-14.21-19-45-44.45-75-69.19-20-16.49-38.91-32.06-51-44.16a10.72,10.72,0,0,0-12.57-1.87c-10.87,5.82-15.76,8.23-28,9.46a10.67,10.67,0,0,0-8,4.93c-8.37,13.27-31.62,19.58-39,15-4.19-2.62-5-5.29-5.23-7.32-1-9.07,8.16-24.78,23.4-40,37.74-37.74,64.72-45.12,99.63-27.12,33.16,17.1,65.89,26.77,79.64,30.42a42.8,42.8,0,0,0,1.27,4.78l41.42,110.45Zm90.42.87H470.18a21.43,21.43,0,0,1-20-13.84L405.33,186.52A21.35,21.35,0,0,1,418,159l72.65-26.42V320Z" transform="translate(0 -85.33)"/></svg>