<svg id="Capa_1" data-name="Capa 1" xmlns="http://www.w3.org/2000/svg" viewBox="0 0 426.67 512"><defs><style>.cls-1{fill:#006df0;}</style></defs><title>experience</title><path class="cls-1" d="M320,170.66V21.35h21.33V0H170.66V21.35H192V170.66S42.68,384,42.68,448s64,64,64,64H405.34s64,0,64-64S320,170.66,320,170.66Zm85.28,320H106.66c-7.1,0-42.68-2.1-42.68-42.68,0-41.7,89.25-184.74,145.48-265.1l3.85-5.52v-156h85.33v156l3.85,5.52c56.23,80.36,145.46,223.4,145.46,265.1C447.95,487,415.22,490.48,405.27,490.65ZM192,410.15a21.33,21.33,0,1,1-21.33-21.33A21.32,21.32,0,0,1,192,410.15Zm127.46,29.91a28.74,28.74,0,1,1-28.74-28.74A28.73,28.73,0,0,1,319.44,440.06Zm-51-38.28a26.92,26.92,0,1,1-26.92-26.92A26.92,26.92,0,0,1,268.4,401.78ZM236.53,367.5a39.76,39.76,0,1,1,39.76-39.76A39.77,39.77,0,0,1,236.53,367.5Zm60-37a21.33,21.33,0,1,1,21.33,21.33A21.32,21.32,0,0,1,296.51,330.51Zm23.26,50.71a14.06,14.06,0,1,1-14.06-14.06A14.05,14.05,0,0,1,319.78,381.22Z" transform="translate(-42.68)"/></svg>