<svg id="Capa_1" data-name="Capa 1" xmlns="http://www.w3.org/2000/svg" viewBox="0 0 512 479.28"><defs><style>.cls-1{fill:#006df0;}</style></defs><title>mechanism</title><path class="cls-1" d="M230.57,286.1a130.08,130.08,0,0,0,27.83-23.38l29.26,16.9,26.65-46.15L285.1,216.6a128.51,128.51,0,0,0,6.31-35.83l33.23-5.86-9.26-52.48-33.22,5.86a129.2,129.2,0,0,0-18.22-31.47L285.65,71,244.83,36.7l-21.7,25.85A128.28,128.28,0,0,0,189,50.08V16.36H135.67V50.08A128.3,128.3,0,0,0,101.5,62.55L79.8,36.7,39,71,60.69,96.83a129.26,129.26,0,0,0-18.22,31.47L9.25,122.44,0,174.92l33.22,5.86a128.55,128.55,0,0,0,6.31,35.83L10.32,233.47,37,279.62l29.27-16.89A130.08,130.08,0,0,0,94.06,286.1L82.51,317.84l50.08,18.22,11.54-31.69a129.2,129.2,0,0,0,36.38,0L192,336.07l50.08-18.23Zm-68.26-41.56a68.06,68.06,0,1,1,68.06-68.06A68.13,68.13,0,0,1,162.31,244.54Z" transform="translate(0 -16.36)"/><path class="cls-1" d="M459.64,326.12l-23,7.43a92.51,92.51,0,0,0-16-20.51l12.84-20.49L401.15,272.3l-12.83,20.47a91.66,91.66,0,0,0-25.46-5.46l-3.33-23.91-37.78,5.27,3.33,23.91a91.81,91.81,0,0,0-23,12.22L284.15,288.6l-25.56,28.32,17.95,16.21a92.49,92.49,0,0,0-9.8,24.11l-24.13-.87-1.38,38.12,24.13.88a92,92,0,0,0,8,24.78l-19,14.84,23.45,30.09,19.08-14.87a93.35,93.35,0,0,0,22,13.83l-5.06,23.64,37.31,8L356.2,472a92.78,92.78,0,0,0,25.79-3.6l11.31,21.33L427,471.9l-11.33-21.35a93.27,93.27,0,0,0,17.42-19.33l22.41,9.09,14.33-35.35-22.37-9.07a92.39,92.39,0,0,0,.93-26l23-7.44ZM363.18,427.82a48.72,48.72,0,1,1,41.53-55A48.78,48.78,0,0,1,363.18,427.82Z" transform="translate(0 -16.36)"/><path class="cls-1" d="M511.1,193.92l.89-30.1-19.05-.57a73,73,0,0,0-6.46-19.52l15-11.82-18.67-23.63-15,11.81a73,73,0,0,0-17.5-10.78l3.87-18.69-29.49-6.11-3.87,18.68a72.32,72.32,0,0,0-20.34,2.95l-9-16.78-26.52,14.28,9,16.78a72.58,72.58,0,0,0-13.66,15.36l-17.72-7.05-11.14,28,17.73,7.06a73,73,0,0,0-.63,20.53l-18.1,6,9.45,28.6,18.1-6A72.63,72.63,0,0,0,370.76,229l-10,16.22,25.62,15.82,10-16.25A73.63,73.63,0,0,0,416.51,249l2.75,18.89,29.8-4.35-2.75-18.87a73.12,73.12,0,0,0,18.1-9.75l14.24,12.68,20-22.49-14.25-12.69A73.73,73.73,0,0,0,492,193.35ZM439.34,210A38.46,38.46,0,1,1,455,157.95,38.51,38.51,0,0,1,439.34,210Z" transform="translate(0 -16.36)"/></svg>